<svg width="198" height="145" viewBox="0 0 198 145" fill="none" xmlns="http://www.w3.org/2000/svg">
<path d="M10.2321 129H188.091C199.569 94.668 208.381 41.3906 170.97 25.2234C113.914 0.566565 85.7043 71.4962 54.934 66.2635C0.0867044 56.9364 -11.326 88.2754 10.2321 129Z" fill="#A7C1E8"/>
<path fill-rule="evenodd" clip-rule="evenodd" d="M145.594 137.453C145.489 138.092 145.216 139.067 144.441 139.832C142.649 141.582 139.988 140.377 138.846 142.032C138.197 142.976 138.197 144.61 138.731 144.935C138.846 144.998 138.972 145.008 139.087 144.998C143.152 144.914 147.28 145.019 151.356 144.935C151.482 144.558 151.586 143.761 151.628 142.996C151.691 141.99 151.482 141.425 151.356 140.167C151.303 139.643 151.241 138.847 151.272 137.851C149.386 137.715 147.5 137.589 145.604 137.453H145.594Z" fill="#764D2A"/>
<path fill-rule="evenodd" clip-rule="evenodd" d="M159.506 137.203C159.956 138.639 159.831 139.635 159.621 140.305C159.454 140.819 159.223 141.175 158.982 142.076C158.741 142.946 158.574 143.533 158.678 143.879C159.15 145.367 165.551 144.549 166.379 144.444C166.484 144.109 166.609 143.606 166.641 142.977C166.704 141.793 166.379 141.039 166.211 140.242C166.033 139.446 165.939 138.272 166.347 136.711C164.074 136.879 161.79 137.046 159.516 137.214L159.506 137.203Z" fill="#764D2A"/>
<path fill-rule="evenodd" clip-rule="evenodd" d="M146.369 60.0102C142.702 61.016 141.518 67.3129 139.684 77.6854C137.526 89.902 138.322 99.6249 138.459 102.349C138.909 111.58 139.852 123.775 141.926 138.223C144.011 138.443 146.253 138.58 148.642 138.611C150.13 138.621 151.555 138.59 152.917 138.527C152.822 134.451 152.728 128.773 152.665 121.994C152.561 108.478 152.498 101.72 152.718 98.4095C154.006 78.2198 159.318 71.1685 154.562 64.4421C152.602 61.6761 149.124 59.2768 146.369 60.0312V60.0102Z" fill="#003087"/>
<path fill-rule="evenodd" clip-rule="evenodd" d="M168.171 138.084C168.622 118.753 168.265 109.952 167.825 105.531C167.679 104.117 167.102 98.1026 167.207 90.4751C167.218 89.5217 167.249 88.5997 167.301 87.5834C167.563 82.3761 168.077 79.2853 167.836 73.8686C167.595 68.6299 166.788 64.3552 166.107 61.4844C164.284 61.6625 162.461 61.8511 160.638 62.0292C157.212 62.5845 153.786 63.1398 150.36 63.6951C152.581 88.6206 154.813 113.546 157.034 138.482C158.857 138.555 160.816 138.566 162.901 138.482C164.766 138.409 166.526 138.262 168.171 138.084Z" fill="#003087"/>
<path fill-rule="evenodd" clip-rule="evenodd" d="M152.77 79.3828C151.806 83.2594 150.601 89.001 150.004 96.0522C149.49 102.066 149.679 105.974 149.972 116.85C150.108 121.879 150.287 129.339 150.444 138.569C151.271 138.559 152.099 138.538 152.916 138.527C153.178 124.687 153.241 110.563 153.073 96.1884C153.011 90.5516 152.906 84.9463 152.77 79.3933V79.3828Z" fill="#001266"/>
<path d="M143.531 63.0234C143.227 63.8408 142.923 64.6582 142.619 65.4755C143.206 65.9471 143.939 66.4605 144.851 66.9425C145.961 67.5294 146.998 67.8856 147.826 68.1057C147.994 67.0997 148.172 66.0938 148.34 65.0878C146.737 64.3962 145.134 63.715 143.531 63.0234Z" fill="#764D2A"/>
<path d="M149.081 65.9558L148.62 68.3135C150.076 68.7222 152.057 69.1099 154.414 69.1099C156.226 69.1099 157.787 68.8899 159.034 68.6174C158.992 67.7686 158.961 66.9094 158.919 66.0606C155.64 66.0187 152.35 65.9872 149.071 65.9453L149.081 65.9558Z" fill="#764D2A"/>
<path d="M166.117 62.5625C166.316 63.5894 166.504 64.6164 166.704 65.6433C165.939 66.1358 165.017 66.6702 163.927 67.1418C162.46 67.781 161.109 68.1582 159.998 68.3783C159.967 67.4352 159.935 66.4921 159.894 65.549C161.968 64.5535 164.042 63.558 166.117 62.5625Z" fill="#764D2A"/>
<path d="M153.597 68.9957C154.916 68.9957 155.985 68.4703 155.985 67.8221C155.985 67.1739 154.916 66.6484 153.597 66.6484C152.277 66.6484 151.208 67.1739 151.208 67.8221C151.208 68.4703 152.277 68.9957 153.597 68.9957Z" fill="#9DA5B4"/>
<path fill-rule="evenodd" clip-rule="evenodd" d="M142.125 28.844C137.84 30.2794 136.887 37.0166 136.426 40.3066C135.818 44.6024 135.294 48.3534 137.295 49.7574C139.904 51.591 145.981 48.8144 148.443 44.4243C151.701 38.6406 148.799 29.8499 144.661 28.6973C143.529 28.383 142.544 28.6973 142.115 28.844H142.125Z" fill="white"/>
<path d="M146.327 27.4892C144.598 28.1179 143.288 28.0445 142.104 29.218C142.104 29.218 141.874 29.4275 141.664 29.7314C140.753 31.0934 140.659 33.9328 141.696 45.4264C141.864 47.2495 142.01 48.9049 142.178 51.367C142.827 60.849 142.272 61.3624 143.047 62.672C146.641 68.7908 164.274 67.6173 166.505 61.9596C166.558 61.8234 166.641 61.4881 166.652 61.4567C167.406 58.6697 167.207 56.4066 167.165 55.778C167.113 54.9922 167.197 55.2227 168.098 46.317C169.533 32.1831 169.355 31.2192 168.58 30.1191C167.071 27.9817 164.295 27.3845 158.805 26.1377C155.986 25.4986 151.775 24.587 148.684 26.2424C147.951 26.6406 147.5 27.0597 146.327 27.4892Z" fill="white"/>
<path fill-rule="evenodd" clip-rule="evenodd" d="M143.802 36.375C143.278 39.1411 142.754 43.0493 142.89 47.7328C143.006 52.0601 143.634 55.392 143.509 55.4024C143.372 55.4234 142.408 51.8296 142.241 47.7118C142.052 43.0598 142.922 39.1516 143.802 36.375Z" fill="#C0C0C0"/>
<path fill-rule="evenodd" clip-rule="evenodd" d="M153.451 37.6667C153.682 37.6667 153.42 44.6449 153.441 56.1808C153.441 63.096 153.545 66.7108 153.441 66.7108C153.284 66.7108 152.959 59.4288 152.833 55.9817C152.634 50.8057 152.561 46.6147 152.99 41.4701C153.074 40.5062 153.304 37.6562 153.462 37.6562L153.451 37.6667Z" fill="#C0C0C0"/>
<path fill-rule="evenodd" clip-rule="evenodd" d="M150.601 17.8594C152.979 17.9327 155.347 17.9956 157.725 18.0689C157.579 18.9071 156.887 23.2973 159.569 25.8434C159.884 26.1367 160.261 26.4301 160.722 26.692C159.37 28.3475 157.107 30.5688 153.891 31.5118C152.812 31.8261 152.016 31.889 151.23 31.6899C148.914 31.1241 147.07 28.4942 147.636 27.1112C147.825 26.6292 148.254 26.4196 148.495 26.2729C149.669 25.55 150.811 23.5488 150.612 17.8699L150.601 17.8594Z" fill="#E3CBAC"/>
<path d="M150.873 31.6734C151.229 32.9308 151.586 34.1776 151.952 35.4349C151.208 41.8368 150.465 48.2386 149.721 54.6405C150.622 56.5579 151.523 58.4858 152.434 60.4032C153.43 58.4648 154.414 56.5265 155.41 54.5881C155.116 48.1967 154.812 41.7949 154.519 35.4035C154.938 34.251 155.368 33.0984 155.787 31.9354C155.294 31.6315 154.414 31.202 153.272 31.16C152.214 31.1181 151.376 31.4325 150.873 31.6734Z" fill="#003087"/>
<path d="M159.306 24.6562C158.52 25.6726 157.567 26.7832 156.404 27.9253C155.157 29.1512 153.931 30.1465 152.842 30.9429C153.795 32.305 154.749 33.667 155.702 35.0291C157.095 33.8976 158.845 32.1583 160.333 29.6855C160.982 28.6063 161.464 27.569 161.831 26.6365C160.982 25.9764 160.144 25.3163 159.296 24.6562H159.306Z" fill="#C0C0C0"/>
<path d="M148.674 25.2292C149.051 26.0989 149.627 27.2095 150.507 28.3621C151.429 29.567 152.393 30.4366 153.158 31.0339C152.467 32.3017 151.786 33.5695 151.094 34.8373C150.005 33.6847 148.695 32.0083 147.668 29.7556C147.228 28.7916 146.903 27.8696 146.673 27.0314C147.333 26.4237 148.003 25.8265 148.663 25.2188L148.674 25.2292Z" fill="#C0C0C0"/>
<path d="M159.308 24.6562C158.585 25.5573 157.757 26.5108 156.793 27.4747C155.473 28.8054 154.185 29.9056 152.99 30.8066C153.891 31.9278 154.792 33.0384 155.693 34.1595C157.212 32.6717 158.794 30.9114 160.324 28.8159C160.869 28.072 161.361 27.349 161.822 26.6365C160.974 25.9764 160.135 25.3163 159.287 24.6562H159.308Z" fill="white"/>
<path d="M148.674 25.2292C149.03 26.078 149.596 27.1993 150.507 28.3624C151.377 29.4732 152.278 30.2696 152.99 30.8145C152.393 31.9357 151.786 33.0465 151.188 34.1677C150.005 32.6378 148.8 30.8878 147.668 28.8864C147.312 28.2576 146.977 27.6394 146.673 27.0316C147.333 26.4238 148.003 25.8265 148.663 25.2188L148.674 25.2292Z" fill="white"/>
<path fill-rule="evenodd" clip-rule="evenodd" d="M138.428 42.3384C137.925 42.3804 137.621 42.5899 137.621 42.5899C137.496 42.6738 137.443 42.7471 137.307 42.789C137.056 42.8729 136.972 42.7471 136.699 42.789C136.542 42.8205 136.406 42.9043 136.134 43.0824C135.914 43.2187 135.935 43.2396 135.809 43.3025C135.536 43.4492 135.421 43.3654 135.128 43.4492C135.044 43.4702 134.656 43.6064 134.436 43.9627C134.3 44.1932 134.279 44.4133 134.279 44.5809C134.258 45.0315 134.415 45.1782 134.656 45.9222C134.876 46.5929 134.793 46.7396 135.013 46.9806C135.316 47.3159 135.756 47.3578 135.914 47.3788C136.416 47.4417 136.5 47.2216 137.098 47.1797C137.653 47.1483 137.695 47.3369 138.418 47.3683C139.025 47.3998 139.476 47.2845 139.601 47.2531C140.125 47.1168 140.817 46.9492 141.037 46.4671C141.11 46.31 141.183 46.0165 140.544 44.801C140.031 43.816 139.224 42.2651 138.439 42.3384H138.428Z" fill="#E3CBAC"/>
<path fill-rule="evenodd" clip-rule="evenodd" d="M145.206 44.6719H132.372C131.785 44.6719 131.366 45.1853 131.523 45.6987L134.667 55.883C134.771 56.2287 135.117 56.4697 135.515 56.4697H147.972C148.548 56.4697 148.968 55.9773 148.831 55.4639L146.065 45.2796C145.971 44.9233 145.615 44.6719 145.206 44.6719Z" fill="#9DA5B4"/>
<path d="M140.115 51.9694C139.12 51.9694 138.303 51.1626 138.303 50.1566C138.303 49.1506 139.109 48.3438 140.115 48.3438C141.121 48.3438 141.928 49.1506 141.928 50.1566C141.928 51.1626 141.121 51.9694 140.115 51.9694Z" fill="#EAEAEA"/>
<path fill-rule="evenodd" clip-rule="evenodd" d="M143.572 71.1655C144.787 70.5473 145.322 69.5099 145.479 69.1641C144.997 69.6147 144.347 70.1386 143.519 70.6311C142.755 71.0922 142.032 71.3961 141.435 71.6056C141.833 71.6266 142.671 71.6161 143.572 71.1655Z" fill="#001266"/>
<path fill-rule="evenodd" clip-rule="evenodd" d="M162.325 71.8086C163.876 72.6784 165.489 72.4898 166.013 72.4164C165.144 72.2173 164.086 71.9029 162.954 71.3685C161.896 70.876 161.058 70.3206 160.408 69.8281C160.639 70.2787 161.183 71.1694 162.325 71.8086Z" fill="#001266"/>
<path fill-rule="evenodd" clip-rule="evenodd" d="M157.871 145.005C157.253 143.464 157.735 142.447 157.871 142.206C158.605 140.886 160.575 140.854 162.502 140.823C164.294 140.791 165.572 140.77 166.4 141.724C167.29 142.73 166.766 144.554 166.693 145.005H157.871Z" fill="#9E653B"/>
<path d="M144.955 27.8052C145.636 31.3991 146.956 36.0826 149.67 41.049C150.885 43.2808 152.195 45.2086 153.441 46.8432C156.155 44.318 157.747 41.8767 158.711 40.0851C160.325 37.078 160.828 34.4166 163.531 29.8903C164.086 28.9473 164.578 28.2034 164.914 27.7109" stroke="#434343" stroke-width="0.75" stroke-miterlimit="10" stroke-linecap="round"/>
<path d="M155.461 47H151.773C151.091 47 150.537 47.5536 150.537 48.2365V52.0718C150.537 52.7547 151.091 53.3083 151.773 53.3083H155.461C156.144 53.3083 156.698 52.7547 156.698 52.0718V48.2365C156.698 47.5536 156.144 47 155.461 47Z" fill="#DADCE0" stroke="#434343" stroke-width="0.25" stroke-miterlimit="10" stroke-linecap="round"/>
<path d="M152.895 48.0234H151.313V49.9935H152.895V48.0234Z" fill="#76849B"/>
<path d="M155.589 48.0625H153.493V48.3358H155.589V48.0625Z" fill="#76849B"/>
<path d="M155.589 48.6016H153.493V48.8748H155.589V48.6016Z" fill="#76849B"/>
<path fill-rule="evenodd" clip-rule="evenodd" d="M154.54 54.2289C155.871 54.386 157.201 54.5537 158.542 54.7318C161.455 55.109 164.336 55.5071 167.175 55.9262L167.228 54.8156C168.097 54.4384 169.48 53.705 170.706 52.3115C172.435 50.3417 172.843 48.2042 173.032 47.1669C173.42 45.0609 172.508 41.6557 170.675 34.9185C170.591 34.6251 170.434 33.3993 169.658 32.0581C169.197 31.2513 168.296 29.6797 167.196 29.6797C165.824 29.6797 164.839 32.1419 164.326 33.4412C164.127 33.9441 163.205 36.3959 163.466 39.9373C163.55 41.1423 163.812 42.9025 164.587 44.9247C163.55 45.4486 162.44 45.9829 161.245 46.4859C159.569 47.1983 157.966 47.7851 156.478 48.2671C156.478 48.3299 156.478 48.3928 156.478 48.4452C155.253 48.8853 154.027 49.3358 152.811 49.7759C152.214 50.3626 152.099 50.9179 152.078 51.1484C151.942 52.3324 152.916 53.6526 154.561 54.2289H154.54Z" fill="#C0C0C0"/>
<path fill-rule="evenodd" clip-rule="evenodd" d="M147.228 49.5784C145.751 49.5365 144.546 49.5994 143.687 49.6727C142.22 49.7985 141.424 49.9871 141.319 50.4062C141.288 50.5215 141.319 50.6263 141.34 50.6996C141.12 50.7311 140.617 50.8254 140.366 51.1921C140.261 51.3388 140.282 51.4227 140.292 51.4436C140.334 51.5799 140.565 51.6532 140.879 51.6323C140.743 51.7475 140.68 51.8523 140.69 51.9361C140.722 52.1876 141.329 52.3658 142.513 52.4601C142.388 52.5649 142.241 52.7325 142.272 52.8793C142.314 53.1203 142.765 53.2146 143.142 53.2984C143.142 53.2984 143.414 53.3613 145.206 53.8747C146.694 54.3044 146.777 54.6502 147.333 54.493C147.5 54.4511 147.479 54.4196 148.653 53.8223C148.946 53.6756 149.24 53.5289 149.323 53.487C149.784 53.267 150.591 53.0679 152.026 53.2879C152.194 53.0679 152.739 52.3239 152.697 51.255C152.665 50.5844 152.414 50.0814 152.267 49.8194C151.377 50.249 150.916 50.1652 150.664 49.9975C150.434 49.8508 150.444 49.6413 150.13 49.4003C149.973 49.285 149.795 49.1802 149.156 49.044C148.6 48.9182 148.37 48.9182 147.616 48.782C147.354 48.7296 147.144 48.6877 147.008 48.6562C147.05 48.7925 147.092 48.9392 147.123 49.0859C147.165 49.2431 147.207 49.4107 147.238 49.5679L147.228 49.5784Z" fill="#E3CBAC"/>
<path fill-rule="evenodd" clip-rule="evenodd" d="M150.381 49.1389C150.203 49.5371 149.637 50.9517 150.171 52.555C150.423 53.32 150.842 53.8649 151.146 54.1897C152.361 54.2945 153.576 54.3993 154.792 54.5041C154.561 53.6553 154.425 52.9323 154.341 52.3874C154.257 51.8739 154.195 51.4338 154.174 50.8574C154.153 50.1344 154.215 49.5057 154.299 48.9922C153 49.0446 151.691 49.0865 150.391 49.1389H150.381Z" fill="#C0C0C0"/>
<path fill-rule="evenodd" clip-rule="evenodd" d="M154.164 54.1269C155.253 54.2736 156.815 54.4517 158.7 54.567C165.762 55.0175 171.021 55.3528 173.452 52.4295C174.604 51.0465 174.657 49.3701 174.782 46.9183C174.814 46.2372 174.845 44.8018 173.378 38.8819C172.142 33.905 171.629 32.9306 171.115 32.1552C170.854 31.7466 168.287 27.8489 166.181 28.4252C164.955 28.7605 164.452 30.4579 163.97 32.0609C163.803 32.6163 163.017 35.4662 163.824 39.3324C164.41 42.13 165.605 44.236 166.537 45.5876C165.919 45.7553 165.28 45.9124 164.641 46.0591C164.033 46.2058 163.583 46.3001 163.52 46.3106C162.661 46.4992 160.115 47.2536 153.986 49.2338C153.891 49.7263 153.829 50.2921 153.808 50.9103C153.766 52.1885 153.954 53.2887 154.164 54.1269Z" fill="white"/>
<path fill-rule="evenodd" clip-rule="evenodd" d="M167.281 57.0304C167.281 59.1259 167.271 60.6871 166.412 62.1854C166.118 62.6988 165.574 63.4741 164.547 64.2076C164.955 62.814 165.333 60.9385 165.322 58.6963C165.322 57.4285 165.186 56.3074 165.008 55.3435C165.731 55.2073 166.464 55.0815 167.187 54.9453C167.229 55.4273 167.281 56.1503 167.271 57.0304H167.281Z" fill="#C0C0C0"/>
<path d="M154.488 65.3614C154.673 65.3614 154.823 65.1878 154.823 64.9737C154.823 64.7595 154.673 64.5859 154.488 64.5859C154.302 64.5859 154.152 64.7595 154.152 64.9737C154.152 65.1878 154.302 65.3614 154.488 65.3614Z" fill="#C0C0C0"/>
<path d="M154.488 61.8067C154.673 61.8067 154.823 61.6331 154.823 61.419C154.823 61.2048 154.673 61.0312 154.488 61.0312C154.302 61.0312 154.152 61.2048 154.152 61.419C154.152 61.6331 154.302 61.8067 154.488 61.8067Z" fill="#C0C0C0"/>
<path d="M154.488 58.4004C154.673 58.4004 154.823 58.2269 154.823 58.0127C154.823 57.7986 154.673 57.625 154.488 57.625C154.302 57.625 154.152 57.7986 154.152 58.0127C154.152 58.2269 154.302 58.4004 154.488 58.4004Z" fill="#C0C0C0"/>
<path d="M151.45 33.702C151.482 33.8173 151.513 33.943 151.544 34.0583L153.116 31.6901C153.745 32.4865 154.363 33.2829 154.991 34.0793L155.211 33.5658C154.468 32.6541 153.724 31.7425 152.99 30.8203L151.45 33.6915V33.702Z" fill="#001A4F"/>
<path d="M154.426 35.4375C154.122 35.5109 153.714 35.5842 153.232 35.5842C152.739 35.5842 152.32 35.5109 152.006 35.4375C152.121 35.5528 152.299 35.71 152.551 35.8567C152.75 35.9719 152.928 36.0662 153.169 36.0767C153.494 36.0977 153.745 35.9614 153.923 35.8567C154.164 35.7204 154.332 35.5528 154.436 35.4375H154.426Z" fill="#001A4F"/>
<path d="M164.305 32.0491C165.018 30.3515 166.023 29.2198 166.663 28.6016C166.013 29.4608 165.227 30.6764 164.578 32.2482C163.939 33.7886 163.635 35.1928 163.488 36.2512C163.478 35.3605 163.572 33.7991 164.305 32.0491Z" fill="#C0C0C0"/>
<path d="M144.598 32.1896C144.598 33.0174 144.409 33.9291 144.367 34.1596C144.262 34.7045 144.126 35.1551 144.021 35.4799C144.178 34.6416 144.315 33.4994 144.252 32.1267C144.189 30.7749 143.948 29.6222 143.707 28.7734C144.514 30.3453 144.598 31.5923 144.598 32.1896Z" fill="#C0C0C0"/>
<path fill-rule="evenodd" clip-rule="evenodd" d="M158.971 21.5725C158.447 21.782 157.986 21.9078 157.64 21.9811C157.577 21.8659 157.494 21.6877 157.399 21.4782C156.781 20.0323 157.001 19.2674 156.656 17.7481C156.31 16.2393 156.016 16.3232 156.048 15.6107C156.069 14.9506 156.394 14.1648 157.399 13.2218C158.321 12.3626 158.206 11.0529 157.295 10.6338C156.813 10.4138 156.477 10.6128 155.985 10.529C155.838 10.5081 154.539 10.2356 154.11 9.17739C153.795 8.41252 154.036 7.46953 154.686 6.75705C157.064 6.04457 158.499 6.42177 159.348 6.86183C161.265 7.84673 162.805 10.4557 162.805 10.4557C164.377 11.3358 165.508 12.9808 164.031 16.4384C163.141 18.5235 161.873 19.7808 161.443 20.137C160.501 20.9333 159.537 21.3734 158.981 21.5934L158.971 21.5725Z" fill="#77695D"/>
<path fill-rule="evenodd" clip-rule="evenodd" d="M149.395 13.2681C148.84 14.295 148.473 15.3846 148.285 16.5162C147.918 18.6013 148.211 19.8691 150.317 20.6235C152.255 21.315 154.801 22.6561 156.142 20.4873C156.54 19.8167 157.253 18.8213 157.808 18.0879C159.935 15.2903 158.814 10.1877 156.886 8.62654C154.435 6.63578 151.616 8.63702 149.395 13.2681Z" fill="#E3CBAC"/>
<path fill-rule="evenodd" clip-rule="evenodd" d="M157.244 15.5388C156.951 15.895 156.825 16.3456 156.878 16.8067C156.93 17.2573 157.14 17.6765 157.506 17.9699C157.873 18.2633 158.313 18.389 158.774 18.3366C159.225 18.2842 159.644 18.0747 159.937 17.7079C160.23 17.3411 160.356 16.901 160.304 16.4399C160.251 15.9894 160.042 15.5702 159.675 15.2768C159.308 14.9834 158.868 14.8576 158.407 14.91C157.957 14.9624 157.538 15.172 157.244 15.5388Z" fill="#E3CBAC"/>
<path fill-rule="evenodd" clip-rule="evenodd" d="M148.653 15.1965C148.653 15.1965 147.532 14.4001 147.668 13.7609C147.804 13.1217 150.779 11.0469 150.779 11.0469L148.642 15.207L148.653 15.1965Z" fill="#E3CBAC"/>
<path fill-rule="evenodd" clip-rule="evenodd" d="M151.9 12.6787C151.9 12.6787 152.026 12.7206 152.079 12.6996C152.131 12.6787 152.183 12.6472 152.225 12.5948L152.571 12.0185C152.571 12.0185 152.613 11.8927 152.592 11.8403C152.571 11.788 152.54 11.7146 152.477 11.6832C152.424 11.6412 152.351 11.6412 152.299 11.6622C152.246 11.6832 152.194 11.7146 152.152 11.767L151.806 12.3433C151.806 12.3433 151.764 12.4691 151.785 12.5215C151.806 12.5739 151.838 12.6472 151.9 12.6787Z" fill="#57433B"/>
<path fill-rule="evenodd" clip-rule="evenodd" d="M158.489 11.2734C156.53 13.6938 155.357 15.8731 154.927 16.2084C154.508 16.5228 153.597 16.6799 152.402 16.3132C151.355 15.8836 149.228 15.6321 148.327 14.9511C148.201 16.3342 147.95 16.638 148.075 18.2411C148.295 19.8861 147.897 20.9129 149.291 21.2901C150.391 21.5835 152.455 22.3274 154.393 21.3634C155.587 20.7662 156.132 19.8546 156.981 18.4402C158.751 15.475 159.317 12.0593 159.317 12.0593L158.489 11.2734Z" fill="#77695D"/>
<path fill-rule="evenodd" clip-rule="evenodd" d="M156.405 19.2842C156.405 19.2842 155.933 14.4017 157.379 12.107C158.804 9.81243 155.975 10.3887 154.927 9.91721C153.66 9.35141 153.408 7.49686 153.408 7.49686L156.038 7.14062L161.035 8.98469L160.732 14.8208C160.732 14.8208 157.777 16.2562 156.614 18.8442" fill="#77695D"/>
<path fill-rule="evenodd" clip-rule="evenodd" d="M151.742 5.91897C150.035 5.39509 149.657 5.47891 149.532 5.59416C149.532 5.59416 149.511 5.61512 149.5 5.62559C149.123 6.12852 150.37 7.63731 150.611 7.93068C151.69 9.22991 152.905 9.91096 153.314 10.131C155.063 11.0635 155.43 10.6654 157.347 11.4302C159.055 12.1113 160.218 13.0124 162.554 14.825C163.571 15.6108 164.388 16.3128 164.954 16.8157C165.037 16.7738 165.184 16.69 165.247 16.5433C165.415 16.1347 164.807 15.5479 164.597 15.3384C159.139 10.0472 156.97 7.51158 151.753 5.90849L151.742 5.91897Z" fill="white"/>
<path fill-rule="evenodd" clip-rule="evenodd" d="M164.712 15.7812C163.403 15.1106 162.366 14.3772 161.538 13.7066C160.49 12.837 160.574 12.7008 159.841 12.2398C158.447 11.3701 157.62 11.5692 156.436 10.5843C156.331 10.5005 156.184 10.3433 155.399 9.43174C154.34 8.21633 153.544 7.14761 153.01 6.39321C153.628 5.86933 155.734 4.20338 158.783 4.23481C159.537 4.23481 162.764 4.26625 164.555 6.65516C165.854 8.38397 165.729 10.4586 165.645 11.9464C165.54 13.6333 165.079 14.964 164.723 15.7917L164.712 15.7812Z" fill="white"/>
<path fill-rule="evenodd" clip-rule="evenodd" d="M162.042 5.7219C162.052 5.64855 160.502 5.26083 158.763 5.48088C156.772 5.74286 155.452 6.68596 155.515 6.74883C155.567 6.8117 156.688 6.15153 158.668 5.84764C160.596 5.55423 162.031 5.79525 162.042 5.7219Z" fill="#9DA5B4"/>
<path fill-rule="evenodd" clip-rule="evenodd" d="M153.209 6.60156C154.686 6.95785 157.169 7.76472 159.705 9.67188C162.135 11.4952 163.571 13.5491 164.335 14.838C163.193 13.4443 161.549 11.7048 159.307 10.0386C157.044 8.36202 154.885 7.29317 153.209 6.60156Z" fill="#9DA5B4"/>
<path d="M154.164 12.9609C156.217 13.7364 158.26 14.5118 160.314 15.2768C160.209 15.3082 160.104 15.3396 159.999 15.3816C158.019 14.648 156.049 13.9145 154.069 13.181" fill="#382311"/>
<path d="M151.377 11.5731L151.261 11.7827C151.188 11.6989 151.083 11.5941 150.937 11.5102C150.633 11.3216 150.34 11.2902 150.172 11.2797L150.287 11.1016C150.371 11.1016 150.465 11.1016 150.56 11.1016C150.979 11.1644 151.261 11.4369 151.366 11.5626L151.377 11.5731Z" fill="#382311"/>
<path opacity="0.33" d="M153.729 11.8737L152.202 11.2084C151.879 11.0674 151.502 11.2155 151.361 11.5391L151.143 12.0387C151.002 12.3623 151.15 12.739 151.474 12.8799L153.001 13.5453C153.325 13.6863 153.701 13.5382 153.842 13.2146L154.06 12.715C154.201 12.3914 154.053 12.0147 153.729 11.8737Z" fill="#C3E7EE"/>
<path d="M153.792 11.9072L152.187 11.2084C151.864 11.0674 151.487 11.2155 151.346 11.5391L151.112 12.0771C150.971 12.4007 151.119 12.7774 151.443 12.9184L153.047 13.6172C153.37 13.7582 153.747 13.6101 153.888 13.2865L154.122 12.7485C154.263 12.4248 154.115 12.0482 153.792 11.9072Z" stroke="#382311" stroke-width="0.25"/>
<path d="M28.6309 132.384L58.5843 132.415L58.6577 110.797L28.7042 110.766" fill="#D3A881"/>
<path d="M54.2461 132.404H58.5835L58.6569 110.797H54.3194L54.2461 132.404Z" fill="#B6875E"/>
<path d="M41.3076 127.628H50.0454L50.0873 115.336H41.3495" fill="#FBF0E4"/>
<path d="M58.6469 109.938L28.6935 109.97L28.6201 88.3517L58.5736 88.3203" fill="#C1916B"/>
<path d="M28.7038 87.5343H58.6048L58.5524 66.8594H28.6514" fill="#D3A881"/>
<path d="M28.6925 87.5343H33.0194L32.9461 66.8594H28.6191" fill="#B6875E"/>
<path d="M55.3656 69.8047H46.8164L46.8478 79.6758H55.397L55.3656 69.8047Z" fill="#FBF0E4"/>
<path d="M58.6459 65.5164L28.6925 65.5478L28.6191 43.9299L58.5726 43.8984" fill="#D3A881"/>
<path d="M86.2004 57.3864H77.756L77.7246 46.2578H86.169" fill="#FBF0E4"/>
<path d="M28.6318 43.0555L58.5853 43.0869L58.6586 21.4689L28.7052 21.4375" fill="#C1916B"/>
<path d="M28.7038 20.6749H58.6991L58.6467 0H28.6514" fill="#D3A881"/>
<path d="M28.6925 20.6749H33.0404L32.9671 0H28.6191" fill="#B6875E"/>
<path d="M44.9627 6.125H36.3926L36.424 17.5365H44.9941L44.9627 6.125Z" fill="#FBF0E4"/>
<path d="M90.9863 132.384L120.94 132.415L121.013 110.797L91.0597 110.766" fill="#D3A881"/>
<path d="M116.592 132.404H120.929L121.003 110.797H116.665L116.592 132.404Z" fill="#B6875E"/>
<path d="M95.0518 125.332H103.496L103.528 114.203H95.0832" fill="#FBF0E4"/>
<path d="M121.005 109.938L91.0519 109.97L90.9785 88.3517L120.932 88.3203" fill="#C1916B"/>
<path d="M91.0631 87.5343H120.964L120.912 66.8594H91.0107" fill="#D3A881"/>
<path d="M91.0519 87.5343H95.3788L95.3055 66.8594H90.9785" fill="#B6875E"/>
<path d="M117.716 69.8047H107.396L107.438 82.5365H117.758L117.716 69.8047Z" fill="#FBF0E4"/>
<path d="M121.007 65.5164L91.0538 65.5478L90.9805 43.9299L120.934 43.8984" fill="#D3A881"/>
<path d="M87.428 63.1755H78.9836L78.9521 52.0469H87.3965" fill="#FBF0E4"/>
<path d="M90.9863 43.0711L120.94 43.1025L121.013 21.4846L91.0597 21.4531" fill="#C1916B"/>
<path d="M116.592 43.1075H120.929L121.003 21.5H116.665L116.592 43.1075Z" fill="#A06D47"/>
<path d="M89.7846 132.384L59.8312 132.415L59.7578 110.797L89.7113 110.766" fill="#D3A881"/>
<path d="M59.7686 65.5164L89.722 65.5478L89.7954 43.9299L59.8419 43.8984" fill="#D3A881"/>
<path d="M85.374 65.5372H89.7115L89.7848 43.9297H85.4474L85.374 65.5372Z" fill="#B6875E"/>
<path d="M89.7836 43.0711L59.8302 43.1025L59.7568 21.4846L89.7103 21.4531" fill="#C1916B"/>
<path d="M64.1676 43.1075H59.8302L59.7568 21.5H64.0943L64.1676 43.1075Z" fill="#A06D47"/>
<path d="M84.9853 37.7286H74.1103L74.0684 24.6719H84.9434L84.9853 37.7286Z" fill="#FBF0E4"/>
<path d="M102.703 39.5038H94.9601L94.9287 28.7734H102.671L102.703 39.5038Z" fill="#FBF0E4"/>
<path d="M89.7122 20.6749H59.7168L59.7692 0H89.7646" fill="#D3A881"/>
<path d="M89.7122 20.6749H85.3643L85.4376 0H89.7855" fill="#B6875E"/>
<path d="M120.873 20.5804L90.92 20.6118L90.8467 0.0626864L120.8 0.03125" fill="#C1916B"/>
<path d="M95.2575 20.6116H90.92L90.8467 0.0625H95.1841L95.2575 20.6116Z" fill="#A06D47"/>
<path d="M114.441 13.7428H106.698L106.667 3.54688H114.409L114.441 13.7428Z" fill="#FBF0E4"/>
<path d="M89.7729 87.5058L59.8194 87.5373L59.7461 66.8205L89.6996 66.7891" fill="#C1916B"/>
<path d="M59.7568 110.055L89.7103 110.087L89.7836 88.4689L59.8302 88.4375" fill="#D3A881"/>
<path d="M85.3613 110.092H89.6988L89.7721 88.4844H85.4347L85.3613 110.092Z" fill="#B6875E"/>
<path d="M63.8232 103.004H72.2676L72.2991 91.875H63.8547" fill="#FBF0E4"/>
<path d="M124.012 135.547H24.0098V140.011H124.012V135.547Z" fill="#F8B541"/>
<path d="M124.012 143.156H24.0098V144.78H124.012V143.156Z" fill="#F8B541"/>
<path d="M37.2429 133.18H24.042V134.762H37.2429V133.18Z" fill="#F8B541"/>
<path d="M51.6911 133.18H38.4902V134.762H51.6911V133.18Z" fill="#F8B541"/>
<path d="M66.1472 133.18H52.9463V134.762H66.1472V133.18Z" fill="#F8B541"/>
<path d="M80.5954 133.18H67.3945V134.762H80.5954V133.18Z" fill="#F8B541"/>
<path d="M95.0534 133.18H81.8525V134.762H95.0534V133.18Z" fill="#F8B541"/>
<path d="M109.502 133.18H96.3008V134.762H109.502V133.18Z" fill="#F8B541"/>
<path d="M123.961 133.18H110.76V134.762H123.961V133.18Z" fill="#F8B541"/>
<path d="M36.0065 138.102H24V144.557H36.0065V138.102Z" fill="#F8B541"/>
<path d="M124.012 138.102H112.006V144.557H124.012V138.102Z" fill="#F8B541"/>
<path d="M80.0095 138.102H68.0029V144.557H80.0095V138.102Z" fill="#F8B541"/>
<path opacity="0.27" d="M77.7682 0.0078125H70.6963V12.8654H77.7682V0.0078125Z" fill="#FBF0E4"/>
<path opacity="0.27" d="M47.3844 21.3438H40.3125V34.2014H47.3844V21.3438Z" fill="#FBF0E4"/>
<path opacity="0.27" d="M109.847 43.8672H102.775V56.7248H109.847V43.8672Z" fill="#FBF0E4"/>
<path opacity="0.27" d="M79.277 66.8516H72.2051V79.7092H79.277V66.8516Z" fill="#FBF0E4"/>
<path opacity="0.27" d="M46.4733 88.3594H39.4014V101.217H46.4733V88.3594Z" fill="#FBF0E4"/>
<path opacity="0.27" d="M109.847 88.1094H102.775V100.967H109.847V88.1094Z" fill="#FBF0E4"/>
<path opacity="0.27" d="M78.0612 110.711H70.9893V123.569H78.0612V110.711Z" fill="#FBF0E4"/>
<path opacity="0.27" d="M47.9928 43.8672H40.9209V56.7248H47.9928V43.8672Z" fill="#FBF0E4"/>
<path d="M69.7836 63.0429H62.0412L62.0098 52.3125H69.7522L69.7836 63.0429Z" fill="#FBF0E4"/>
</svg>
