<svg width="34" height="32" viewBox="0 0 34 32" fill="none" xmlns="http://www.w3.org/2000/svg">
<path d="M23.126 22.287H1.66602V3.36035H29.0727V14.167" stroke="#003087" stroke-width="1.5" stroke-linejoin="round"/>
<path d="M5.24023 7.57324H13.9269H5.24023Z" fill="url(#paint0_linear_1879_14669)"/>
<path d="M5.24023 7.57324H13.9269" stroke="#003087" stroke-width="1.5" stroke-linecap="round" stroke-linejoin="round"/>
<path d="M5.24023 10.9541H7.24023H5.24023Z" fill="#A7C1E8"/>
<path d="M5.24023 10.9541H7.24023" stroke="#003087" stroke-width="1.5" stroke-linecap="round" stroke-linejoin="round"/>
<path d="M9.16602 10.9541H11.1727H9.16602Z" fill="#A7C1E8"/>
<path d="M9.16602 10.9541H11.1727" stroke="#003087" stroke-width="1.5" stroke-linecap="round" stroke-linejoin="round"/>
<path d="M21.5 6.92676H25.5133V10.9801H21.5V6.92676Z" fill="#A7C1E8" stroke="#003087" stroke-width="1.5" stroke-linejoin="round"/>
<path fill-rule="evenodd" clip-rule="evenodd" d="M32.3324 18.8739C32.3324 23.3339 27.3791 29.3339 27.3791 29.3339C25.6663 27.2567 24.2608 24.9442 23.2058 22.4673C22.73 21.336 22.4656 20.1272 22.4258 18.9006C22.4258 16.1649 24.6435 13.9473 27.3791 13.9473C30.1148 13.9473 32.3324 16.1649 32.3324 18.9006V18.8739Z" stroke="#003087" stroke-width="1.5" stroke-linejoin="round"/>
<path d="M29.273 19.42C29.2784 20.187 28.8206 20.8815 28.1135 21.1787C27.4065 21.476 26.5899 21.3173 26.0457 20.7769C25.5014 20.2365 25.337 19.4211 25.6292 18.7119C25.9215 18.0028 26.6127 17.5401 27.3797 17.54C28.4201 17.54 29.2657 18.3796 29.273 19.42Z" fill="#A7C1E8" stroke="#003087" stroke-width="1.5" stroke-linejoin="round"/>
<defs>
<linearGradient id="paint0_linear_1879_14669" x1="5.24023" y1="7.90658" x2="13.9269" y2="7.90658" gradientUnits="userSpaceOnUse">
<stop stop-color="white"/>
<stop offset="1" stop-color="white"/>
</linearGradient>
</defs>
</svg>
