<svg width="32" height="33" viewBox="0 0 32 33" fill="none" xmlns="http://www.w3.org/2000/svg">
<path fill-rule="evenodd" clip-rule="evenodd" d="M31.2293 17.3333C31.2293 23.3599 24.816 31.3599 24.816 31.3599C24.816 31.3599 18.416 23.4799 18.416 17.3333C18.416 15.042 19.6384 12.9248 21.6227 11.7791C23.607 10.6335 26.0517 10.6335 28.036 11.7791C30.0203 12.9248 31.2427 15.042 31.2427 17.3333H31.2293Z" stroke="#003087" stroke-width="1.5" stroke-linejoin="round"/>
<circle cx="24.8145" cy="17.2129" r="2" fill="#A7C1E8" stroke="#003087" stroke-width="1.5" stroke-linejoin="round"/>
<path d="M1.98828 2.01335H25.9883" stroke="#003087" stroke-width="1.5" stroke-linecap="round" stroke-linejoin="round"/>
<path d="M10.6543 7.34635H17.321" stroke="#003087" stroke-width="1.5" stroke-linecap="round" stroke-linejoin="round"/>
<path fill-rule="evenodd" clip-rule="evenodd" d="M16.6556 23.3467H11.3356L11.3223 15.3467H16.6289L16.6556 23.3467Z" fill="#A7C1E8" stroke="#003087" stroke-width="1.5" stroke-linecap="round" stroke-linejoin="round"/>
<path fill-rule="evenodd" clip-rule="evenodd" d="M18.4156 17.3337C18.3396 13.7855 21.1101 10.8255 24.6556 10.667V2.01367H3.32227V23.347H19.9089C19.0127 21.4631 18.5049 19.418 18.4156 17.3337V17.3337Z" stroke="#003087" stroke-width="1.5" stroke-linejoin="round"/>
</svg>
