<svg width="49" height="48" viewBox="0 0 49 48" fill="none" xmlns="http://www.w3.org/2000/svg">
<path d="M35.6805 3H13.3205C12.3043 3 11.4805 3.8238 11.4805 4.84V43.16C11.4805 44.1762 12.3043 45 13.3205 45H35.6805C36.6967 45 37.5205 44.1762 37.5205 43.16V4.84C37.5205 3.8238 36.6967 3 35.6805 3Z" stroke="#003087" stroke-width="1.83" stroke-linejoin="round"/>
<path d="M35.6805 3H13.3205C12.3043 3 11.4805 3.8238 11.4805 4.84V43.16C11.4805 44.1762 12.3043 45 13.3205 45H35.6805C36.6967 45 37.5205 44.1762 37.5205 43.16V4.84C37.5205 3.8238 36.6967 3 35.6805 3Z" stroke="#003087" stroke-width="1.83" stroke-linejoin="round"/>
<path d="M35.6805 3H13.3205C12.3043 3 11.4805 3.8238 11.4805 4.84V43.16C11.4805 44.1762 12.3043 45 13.3205 45H35.6805C36.6967 45 37.5205 44.1762 37.5205 43.16V4.84C37.5205 3.8238 36.6967 3 35.6805 3Z" stroke="#003087" stroke-width="1.83" stroke-linejoin="round"/>
<path d="M34.0195 35.18V11.02L14.9795 11.02V35.18H34.0195Z" fill="#A7C1E8" stroke="#003087" stroke-width="1.89" stroke-linejoin="round"/>
<path d="M26.8549 40.7252C27.052 39.7001 26.3807 38.7095 25.3556 38.5124C24.3306 38.3154 23.3399 38.9867 23.1429 40.0117C22.9459 41.0368 23.6171 42.0275 24.6422 42.2245C25.6672 42.4215 26.6579 41.7503 26.8549 40.7252Z" stroke="#003087" stroke-width="1.83" stroke-linejoin="round"/>
<path d="M21.9697 6.59998H28.0397" stroke="#003087" stroke-width="1.83" stroke-linecap="round" stroke-linejoin="round"/>
</svg>
