<svg width="48" height="48" viewBox="0 0 48 48" fill="none" xmlns="http://www.w3.org/2000/svg">
<path d="M36.2102 11.23L33.1702 3.71997H6.30023L2.99023 11.23H36.2102Z" fill="#A7C1E8"/>
<path d="M2.99023 11.23H36.2102" stroke="#003087" stroke-width="2" stroke-linecap="round" stroke-linejoin="round"/>
<path d="M19.5996 3.75V18.02" stroke="#003087" stroke-width="2" stroke-linecap="round" stroke-linejoin="round"/>
<path d="M36.2102 23.5V11.23L33.1702 3.71997H6.30023L2.99023 11.23V36.94H25.0002" stroke="#003087" stroke-width="2" stroke-linecap="round" stroke-linejoin="round"/>
<path fill-rule="evenodd" clip-rule="evenodd" d="M36.1244 22C35.7671 21.3812 35.1068 21 34.3923 21C33.6778 21 33.0175 21.3812 32.6603 22L22.2679 40C21.9107 40.6188 21.9107 41.3812 22.2679 42C22.6252 42.6188 23.2855 43 24 43H44.7846C45.4991 43 46.1594 42.6188 46.5167 42C46.8739 41.3812 46.8739 40.6188 46.5167 40L36.1244 22ZM24 41L34.3923 23L44.7846 41H24ZM34.3922 28.9999C33.8399 28.9999 33.3922 29.4476 33.3922 29.9999V34.9999C33.3922 35.5521 33.8399 35.9999 34.3922 35.9999C34.9445 35.9999 35.3922 35.5521 35.3922 34.9999V29.9999C35.3922 29.4476 34.9445 28.9999 34.3922 28.9999ZM34.3922 38.9999C34.9445 38.9999 35.3922 38.5521 35.3922 37.9999C35.3922 37.4476 34.9445 36.9999 34.3922 36.9999C33.8399 36.9999 33.3922 37.4476 33.3922 37.9999C33.3922 38.5521 33.8399 38.9999 34.3922 38.9999Z" fill="#003087"/>
</svg>
