<svg width="198" height="145" viewBox="0 0 198 145" fill="none" xmlns="http://www.w3.org/2000/svg">
<path d="M10.2321 129H188.091C199.569 94.668 208.381 41.3906 170.97 25.2234C113.914 0.566563 85.7043 71.4962 54.934 66.2635C0.0867004 56.9364 -11.326 88.2754 10.2321 129Z" fill="#BADDFF"/>
<path d="M23.0859 65.6797H24.7216V144.999H23.0859V65.6797Z" fill="#68707F"/>
<path d="M156.296 90.4609H157.09V140.507H156.296V90.4609Z" fill="#68707F"/>
<path d="M152.062 90.4609H152.855V143.755H152.062V90.4609Z" fill="#68707F"/>
<path d="M129.319 103.956V103.172H156.885V103.956H129.319Z" fill="#68707F"/>
<path d="M133.421 90.4609H134.215V140.507H133.421V90.4609Z" fill="#68707F"/>
<path d="M129.187 90.4688H129.98V143.762H129.187V90.4688Z" fill="#68707F"/>
<path d="M158.58 90.2578H128.236" stroke="#68707F" stroke-width="4" stroke-miterlimit="10" stroke-linecap="round"/>
<path d="M126.685 33.3672C124.328 36.8436 122.74 45.4262 122.019 56.0125H135.308V36.2642L126.685 33.3672Z" fill="#CD9A8A"/>
<path d="M122.511 51.9919C120.767 54.1406 117.147 57.4601 104.23 59.5484C106.167 60.8762 108.091 62.204 110.027 63.5439C116.57 62.035 123.101 60.5382 129.643 59.0293C129.667 58.6672 129.8 55.6977 127.418 53.6094C125.374 51.8108 122.956 51.9678 122.511 52.004V51.9919Z" fill="#CD9A8A"/>
<path d="M142.008 21.5616C143.884 21.4409 148.478 21.4168 151.894 24.5432C154.696 27.1022 155.321 30.5183 156.043 34.8036C156.837 39.4992 156.548 42.8912 156.38 46.0538C156.163 50.3148 156.055 56.4952 156.668 64.2328H128.478C128.658 56.2538 129.211 49.6147 129.764 44.5811C129.764 44.5811 129.223 39.6199 132.651 31.3995C133.661 28.9612 134.01 26.9694 135.658 25.1709C137.774 22.8653 140.42 21.96 141.996 21.5737L142.008 21.5616Z" fill="#FF9E57"/>
<path d="M134.948 24.0547C134.948 24.0547 125.29 26.6741 122.548 41.8353C122.548 41.8353 126.649 41.9319 130.955 45.2032L137.906 27.3501L134.96 24.0547H134.948Z" fill="#FF9E57"/>
<path d="M129.667 36.3517C129.667 36.3517 131.531 29.1453 133.985 25.4394C134.995 23.9185 135.271 24.1237 135.079 24.1237C134.935 24.1237 133.383 24.5462 133.239 24.7152C132.445 25.5964 131.206 27.2018 130.593 28.2158C129.992 29.1935 129.354 30.0506 128.741 31.2939C126.384 36.074 126.083 44.3065 126.083 44.3065C125.999 49.1349 125.686 55.3515 124.868 63.8616C126.071 63.9702 127.286 64.0909 128.488 64.1996C131.808 65.1532 134.49 65.3343 136.294 65.3343C138.771 65.3343 140.142 64.9721 144.099 64.7669C146.48 64.6341 148.417 64.6341 149.643 64.6583C152.025 64.6945 154.394 64.7307 156.775 64.7669C156.33 48.1209 153.516 40.6852 150.882 37.0156C150.052 35.8568 146.853 31.7526 146.889 26.2482C146.901 24.4979 147.238 23.0615 147.539 22.1199C147.238 22.0233 146.913 21.9268 146.565 21.8423C146.084 21.7336 145.627 21.6612 145.23 21.625C144.905 22.6269 144.604 23.7133 144.328 24.86C144.123 25.6929 143.955 26.5017 143.81 27.2742C143.81 27.2742 143.498 29.0004 142.92 34.9514L129.667 36.3275V36.3517Z" fill="#2C73CA"/>
<path d="M145.135 35.9515C145.135 35.4687 144.75 35.0703 144.257 35.0703C143.764 35.0703 143.379 35.4687 143.379 35.9515C143.379 36.4343 143.764 36.8327 144.257 36.8327C144.75 36.8327 145.135 36.4343 145.135 35.9515Z" fill="#EAEAEA"/>
<path d="M144.581 38.1679C145.568 38.1679 146.373 37.335 146.373 36.2969V36.828C146.373 37.8661 145.568 38.699 144.581 38.699C143.595 38.699 142.777 37.8661 142.777 36.828V36.2969C142.777 37.335 143.583 38.1679 144.581 38.1679Z" fill="#034EA9"/>
<path d="M128.777 36.4709C128.886 36.0605 128.717 35.6622 128.417 35.5777C128.104 35.4932 127.767 35.7708 127.659 36.1812C127.551 36.5916 127.719 36.99 128.02 37.0745C128.332 37.159 128.669 36.8813 128.777 36.4709Z" fill="#EAEAEA"/>
<path d="M128.055 38.3705C128.693 38.4067 129.234 37.9238 129.27 37.3082L129.246 37.6221C129.21 38.2498 128.657 38.7205 128.019 38.6843C127.382 38.6481 126.889 38.129 126.925 37.5013V37.1875C126.901 37.8152 127.394 38.3342 128.043 38.3705H128.055Z" fill="#034EA9"/>
<path d="M134.683 25.3501C135.393 23.5153 133.589 22.272 133.589 22.272L138.784 15.8984C138.784 15.8984 138.977 20.8114 141.058 21.8374C141.058 21.8374 139.314 25.9536 136.896 26.8589C133.95 27.9574 134.683 25.3501 134.683 25.3501Z" fill="#FFDBCC"/>
<path d="M134.695 23.6731C134.551 23.311 134.238 22.8644 134.142 22.804L137.557 19.8828C137.148 22.5022 135.212 23.4921 134.695 23.6731Z" fill="#CD9A8A"/>
<path d="M139.036 3.82912C139.085 5.83292 137.341 7.23316 135.464 6.70203L134.611 6.46061C134.045 6.30369 133.456 6.27954 132.903 6.38818L132.181 6.53304C130.269 6.93138 128.381 5.32593 128.321 3.24971C128.272 1.3787 129.68 -0.0698246 131.46 0.00260168L135.585 0.171596C137.437 0.244022 138.976 1.88568 139.036 3.81705V3.82912Z" fill="#593F35"/>
<path d="M130.112 21.007L126.576 12.8229C125.205 9.66025 126.732 6.07515 129.763 5.29053L132.938 4.45763C136.33 3.57644 139.89 5.80958 140.984 9.49125L141.73 12.0141C142.451 14.4525 141.309 16.9632 139.132 17.7479L130.112 20.995V21.007Z" fill="#593F35"/>
<path d="M128.14 17.1058C129.235 19.8218 130.028 21.3428 131.568 22.405C131.568 22.405 132.506 23.0327 133.6 22.9724C134.563 22.9241 135.513 22.6344 136.487 21.6566C137.593 20.5461 139.325 18.494 139.253 16.4781C139.133 13.0017 136.078 6.47124 130.57 8.5716C127.623 9.28379 126.252 12.3619 128.152 17.0938L128.14 17.1058Z" fill="#FFDBCC"/>
<path d="M131.507 19.892C131.243 19.9282 130.966 19.904 130.678 19.6988C130.605 19.6385 130.533 19.5781 130.473 19.4936C130.413 19.4091 130.365 19.2884 130.341 19.1918C130.281 18.9987 130.257 18.8056 130.233 18.6245C130.148 17.8882 130.136 17.176 130.209 16.5C130.305 17.2363 130.353 17.9365 130.449 18.6366C130.461 18.8056 130.497 18.9866 130.533 19.1436C130.557 19.2281 130.569 19.2884 130.605 19.3488C130.641 19.4212 130.69 19.4695 130.738 19.5178C130.954 19.7109 131.231 19.8195 131.507 19.904V19.892Z" fill="#CD9A8A"/>
<path d="M131.712 15.9879L131.496 15.3964C131.447 15.2757 131.484 15.155 131.556 15.1188C131.64 15.0826 131.736 15.155 131.784 15.2636L132.001 15.8551C132.049 15.9758 132.013 16.0966 131.941 16.1328C131.868 16.169 131.76 16.0965 131.724 15.9879H131.712Z" fill="#3D3F4D"/>
<path d="M129.042 16.8942L128.826 16.3027C128.778 16.182 128.814 16.0613 128.886 16.025C128.97 15.9888 129.066 16.0613 129.114 16.1699L129.331 16.7614C129.379 16.8821 129.343 17.0028 129.271 17.039C129.186 17.0752 129.09 17.0028 129.042 16.8942Z" fill="#3D3F4D"/>
<path d="M127.419 14.6533L126.926 12.2995L132.951 8.19531L133.023 8.27981H133.084L133.144 8.32809L134.779 9.72834L134.623 10.5492C134.563 10.8509 134.611 11.1648 134.755 11.4304C135.008 11.877 134.755 12.4564 134.226 12.5892L132.53 13.2531C131.436 13.6876 130.317 14.0498 129.187 14.3515C128.85 14.4481 128.501 14.5205 128.14 14.5809C127.936 14.6171 127.72 14.6413 127.515 14.6413H127.419V14.6533Z" fill="#CD9A8A"/>
<path d="M136.739 13.3958C136.607 12.7681 136.366 12.1524 136.041 11.5972C135.849 11.2713 135.621 10.9574 135.368 10.6798L132.518 8L132.758 8.03621C134.442 8.26556 136.017 9.0019 137.28 10.1486C138.447 11.223 139.493 12.4904 140.082 13.7337L138.784 14.1804C137.882 14.4821 137.1 15.1219 136.739 13.4078V13.3958Z" fill="#CD9A8A"/>
<path d="M136.907 13.3475C136.775 12.7077 136.534 12.1042 136.221 11.5489C136.029 11.223 135.8 10.9091 135.548 10.6315L132.649 8L132.974 8.06036C134.658 8.28971 136.197 8.95361 137.46 10.1004C138.627 11.1747 139.673 12.4421 140.262 13.6855L138.964 14.1321C138.074 14.4339 137.28 15.0736 136.919 13.3595L136.907 13.3475Z" fill="#593F35"/>
<path d="M140.396 12.6571C140.023 11.8604 139.073 11.5104 138.267 11.8846C137.461 12.2588 137.124 13.2124 137.497 14.0211C137.87 14.8178 138.82 15.1679 139.626 14.7937C140.432 14.4195 140.769 13.4659 140.396 12.6571Z" fill="#FFDBCC"/>
<path d="M125.29 9.94618C127.19 8.87186 130.377 8.14759 130.99 8.05103C131.784 7.91824 132.578 7.83375 133.323 8.07517C132.734 8.37694 132.566 9.12535 132.59 9.83754C132.614 10.5014 132.854 11.1533 133.275 11.6723C133.456 11.9017 133.672 12.119 133.925 12.2397C134.057 12.3121 134.033 12.4932 133.877 12.5415L126.288 14.835C125.771 14.6539 125.314 14.5211 124.917 14.0383C124.363 13.3744 124.231 11.3102 125.277 9.94618H125.29Z" fill="#593F35"/>
<path d="M129.234 14.2015L128.609 13.5376C127.971 12.8495 127.574 11.9804 127.466 11.0389L127.37 10.2422L127.226 11.0751C127.045 12.1373 127.334 13.1875 128.007 13.9963L128.416 14.4671L129.222 14.2136L129.234 14.2015Z" fill="#CD9A8A"/>
<path d="M125.098 58.9694C126.156 59.0901 127.636 59.2229 129.416 59.3316C132.073 59.4885 135.441 59.6696 139.59 59.2954C144.593 58.8367 147.504 57.8589 148.394 57.5451C151.894 56.3138 153.217 55.1188 153.974 53.8513C154.564 52.8736 154.708 52.0044 154.937 50.749C155.321 48.5763 155.79 45.5344 156.175 41.7561C155.706 41.3699 155.237 40.9956 154.768 40.6094L147.227 41.394C147.42 42.8546 147.516 44.7256 147.287 46.8742C147.131 48.3348 146.854 49.6264 146.542 50.7008C145.327 51.1112 143.499 51.763 141.31 52.6201C135.465 54.9136 135.633 55.3723 133.12 55.9879C128.754 57.0743 125.447 56.3862 124.954 57.871C124.821 58.2693 124.954 58.6797 125.074 58.9694H125.098Z" fill="#FFDBCC"/>
<path d="M132.109 59.4616C131.821 59.5099 131.532 59.5944 131.231 59.8117C130.931 60.029 130.161 60.4273 129.547 60.4515C128.934 60.4756 127.539 60.4515 126.926 60.4756C126.312 60.4997 125.326 60.9102 124.749 61.2481C124.159 61.5741 123.546 61.5741 123.366 61.3689C123.185 61.1636 123.366 60.9584 123.666 60.8377C123.979 60.7291 124.653 60.4273 125.025 60.1376C125.398 59.8479 126.012 59.7272 125.759 59.691C125.518 59.6548 125.17 59.7151 124.677 59.8117C124.171 59.9083 123.041 60.6446 122.752 60.7774C122.464 60.9102 121.73 61.3689 121.453 60.9102C121.177 60.4635 122.031 60.1617 122.644 59.8117C123.257 59.4496 124.123 58.9909 123.859 59.0391C123.594 59.0874 122.945 59.3409 122.56 59.4496C122.163 59.5703 121.514 60.0048 121.273 60.0893C121.044 60.1618 120.587 60.2342 120.407 59.9686C120.227 59.703 120.491 59.4616 120.828 59.2443C121.153 59.0271 121.586 58.7615 121.586 58.7615C121.586 58.7615 121.405 58.8098 121.141 58.8822C120.876 58.9667 120.551 58.846 120.431 58.6891C120.311 58.5322 120.431 58.1942 120.672 58.0614C120.9 57.9286 121.947 57.5665 122.644 57.2888C124.063 56.7215 123.654 56.9871 124.929 56.7939C125.663 56.6732 127.226 56.468 129.283 56.5042C130.161 56.5163 130.894 56.5767 131.424 56.637C131.424 56.637 132.133 57.0112 132.229 57.8803C132.326 58.7615 132.133 59.4737 132.133 59.4737L132.109 59.4616Z" fill="#FFDBCC"/>
<path d="M146.59 41.8924C146.59 41.8924 145.928 34.6015 146.012 30.6663C146.145 24.4135 147.191 22.0234 147.191 22.0234C147.191 22.0234 147.275 22.0234 147.419 22.0597C147.419 22.0597 147.72 22.1079 148.033 22.1804C148.225 22.2286 149.981 22.6632 151.1 23.2426C152.783 24.0997 153.854 25.681 154.359 26.4052C156.151 29.0126 157.498 35.024 157.161 42.7615C157.161 42.7615 152.098 42.2183 146.698 42.846L146.59 41.8924Z" fill="#FF9E57"/>
<path d="M154.154 66.8984H124.051C124.051 66.8984 105.217 66.8984 103.064 79.8869C100.911 92.8753 122.523 133.917 122.523 133.917L126.384 131.527L126.095 125.334C125.53 113.094 123.245 100.999 119.3 89.3868L154.142 66.8984H154.154Z" fill="#034EA9"/>
<path d="M129.318 124.175V123.391H156.884V124.175H129.318Z" fill="#68707F"/>
<path d="M123.125 135.147C123.125 135.147 123.125 136.656 122.163 137.755C121.67 138.322 120.732 138.624 119.637 139.408C117.785 140.736 117.929 141.69 117.929 141.69H124.46L129.403 136.982C129.403 136.982 128.321 134.858 126.781 133.047L123.125 135.159V135.147Z" fill="#BE6745"/>
<path d="M106.144 138.414L106.312 136.941L102.007 135.734L101.634 137.992L106.156 138.414H106.144Z" fill="#FFDBCC"/>
<path d="M101.621 137.977C101.621 137.977 99.9972 139.642 97.3633 140.258C93.3343 141.2 93.1299 143.771 93.1299 143.771H106.215C106.215 143.771 106.744 141.622 106.155 138.411L101.633 137.989L101.621 137.977Z" fill="#E06F42"/>
<path d="M126.818 133.025L126.385 131.516L122.524 133.906L123.126 135.149L126.818 133.025Z" fill="#CD9A8A"/>
<path d="M149.836 89.3661H131.423C130.16 89.3661 129.006 90.1025 128.477 91.2371L127.478 94.267C123.317 106.905 117.616 118.988 110.521 130.275L106.323 136.938L102.018 135.731L108.945 87.4348C108.945 87.4348 110.186 73.6817 123.5 70C136.814 66.3183 158.099 67.2761 158.099 67.2761C158.099 67.2761 164.69 87.4951 149.836 89.3661Z" fill="#2C73CA"/>
<path d="M102.944 64.5477H137.413C138.171 64.5477 138.784 63.9441 138.784 63.1957C138.784 62.4473 138.171 61.8438 137.413 61.8438H99.3721L102.944 64.5597V64.5477Z" fill="#9DA5B4"/>
<path d="M90.4355 64.0105H119.733C120.551 64.0105 120.827 63.3586 120.358 62.5499L109.246 43.4293C108.776 42.6206 107.73 41.9688 106.924 41.9688H77.6269C76.8091 41.9688 76.5325 42.6206 77.0015 43.4293L88.1144 62.5499C88.5834 63.3586 89.6297 64.0105 90.4355 64.0105Z" fill="#9DA5B4"/>
<path d="M97.2671 54.6124C95.8238 54.6124 94.6572 53.4536 94.6572 52.0172C94.6572 50.5807 95.8238 49.4219 97.2671 49.4219C98.7103 49.4219 99.8769 50.5807 99.8769 52.0172C99.8769 53.4536 98.7103 54.6124 97.2671 54.6124Z" fill="#EAEAEA"/>
<path d="M180 65.8359H17" stroke="#68707F" stroke-width="4" stroke-miterlimit="10" stroke-linecap="round"/>
<path d="M31.8778 44.3047L64.2421 44.3288L64.1699 63.1114L31.8057 63.0872L31.8778 44.3047Z" fill="#D3A881"/>
<path d="M59.5517 44.3359H64.2421L64.17 63.1185H59.4795L59.5517 44.3359Z" fill="#B6875E"/>
<path d="M43.3518 47.7344H54.2241L54.176 59.3467H43.3037L43.3518 47.7344Z" fill="#FFF1EC"/>
<path d="M29.2919 25.0078L61.6562 25.032L61.584 43.8145L29.2197 43.7904L29.2919 25.0078Z" fill="#D3A881"/>
<path opacity="0.27" d="M41.1383 36.1641H49.6533V24.9983H41.1383V36.1641Z" fill="#FFF1EC"/>
<path d="M63.327 24.592L39.8987 24.6161L39.8506 11.0241L63.2789 11L63.327 24.592Z" fill="#C1916B"/>
<path d="M43.302 24.6232H39.9104L39.8623 11.0312H43.2539L43.302 24.6232Z" fill="#A06D47"/>
<path d="M59.7663 22.8662H51.2392L51.2031 12.5938H59.7302L59.7663 22.8662Z" fill="#FFF1EC"/>
<path d="M140.203 43.6703C140.191 43.5737 138.411 43.9962 135.187 44.2859C132 44.5756 130.16 44.4911 130.16 44.5877C130.16 44.6963 132.397 45.0102 135.055 44.7929C137.893 44.5515 140.215 43.791 140.203 43.6824V43.6703Z" fill="#034EA9"/>
<path d="M130.04 44.8368C129.955 44.8006 129.715 45.8629 128.897 47.3114C128.115 48.6996 127.43 49.3273 127.478 49.4118C127.538 49.5083 128.488 48.8806 129.186 47.7097C129.968 46.394 130.136 44.873 130.04 44.8368Z" fill="#034EA9"/>
<path d="M140.552 43.7587C140.636 43.7225 140.877 44.7847 141.694 46.2333C142.476 47.6214 143.162 48.2491 143.114 48.3336C143.053 48.4302 142.103 47.8025 141.406 46.6316C140.624 45.3159 140.456 43.7949 140.552 43.7587Z" fill="#034EA9"/>
<path d="M70.976 144.938L32.8869 144.974L32.8027 122.872L70.8918 122.836L70.976 144.938Z" fill="#D3A881"/>
<path d="M38.3955 144.969H32.8752L32.791 122.867H38.3113L38.3955 144.969Z" fill="#B6875E"/>
<path d="M67.2354 137.248H56.4954L56.4473 125.805H67.1872L67.2354 137.248Z" fill="#FFF1EC"/>
<path d="M33.4892 78.3125H69.9305L69.8584 99.461H33.417L33.4892 78.3125Z" fill="#D3A881"/>
<path d="M64.675 78.3047H69.9548L69.8706 99.4532H64.5908L64.675 78.3047Z" fill="#B6875E"/>
<path d="M50.303 81.5781H60.7183L60.6701 94.1441H50.2549L50.303 81.5781Z" fill="#FFF1EC"/>
<path d="M171.798 67.4062H172.989V144.975H171.798V67.4062Z" fill="#68707F"/>
<path d="M139.217 14.4699C138.868 14.5182 138.531 16.2322 139.109 16.5823C139.325 16.7151 139.674 16.6547 139.854 16.4616C140.335 15.9425 139.566 14.4216 139.217 14.4699Z" fill="#62A1EB"/>
<path d="M147.42 44.9399C148.754 44.6743 150.39 44.457 152.266 44.445C153.601 44.445 154.816 44.5536 155.862 44.6985C155.898 44.3605 155.935 44.0225 155.971 43.6724C156.007 43.3344 156.055 42.9844 156.091 42.6584C154.828 42.5498 153.469 42.4895 152.002 42.5015C150.318 42.5015 148.767 42.6102 147.359 42.755C147.383 43.0206 147.395 43.3103 147.407 43.5879C147.42 44.0587 147.432 44.5053 147.42 44.9399Z" fill="#CD9A8A"/>
<path d="M74.5609 122.102L36.4719 122.138L36.3877 100.036L74.4768 100L74.5609 122.102Z" fill="#C1916B"/>
<path opacity="0.27" d="M51.2281 115.57H59.7432V100.023H51.2281V115.57Z" fill="#FFF1EC"/>
</svg>
