<svg width="49" height="48" viewBox="0 0 49 48" fill="none" xmlns="http://www.w3.org/2000/svg">
<path d="M39.6298 25.83C39.7898 25.37 39.9298 24.9 40.0498 24.42C41.259 19.5527 40.1602 14.3997 37.0707 10.449C33.9813 6.49827 29.2451 4.18974 24.2298 4.19001C18.8581 4.18519 13.8311 6.83532 10.7998 11.27" stroke="#003087" stroke-width="2" stroke-linecap="round" stroke-linejoin="round"/>
<path d="M24.0196 10.27V21.57L19.6396 26.48" stroke="#003087" stroke-width="2" stroke-linecap="round" stroke-linejoin="round"/>
<path d="M1.5 15.68H10.61" stroke="#003087" stroke-width="2" stroke-linecap="round" stroke-linejoin="round"/>
<path d="M1.5 25.59H10.61" stroke="#003087" stroke-width="2" stroke-linecap="round" stroke-linejoin="round"/>
<path d="M5.00977 20.63H14.1198" stroke="#003087" stroke-width="2" stroke-linecap="round" stroke-linejoin="round"/>
<path d="M47.4995 29.89L45.8595 25.83H31.3095L29.5195 29.89H47.4995V29.89Z" fill="#A7C1E8"/>
<path d="M29.5195 29.89H47.4995" stroke="#003087" stroke-width="2" stroke-linecap="round" stroke-linejoin="round"/>
<path d="M38.5098 29.89V33.56" stroke="#003087" stroke-width="2" stroke-linecap="round" stroke-linejoin="round"/>
<path fill-rule="evenodd" clip-rule="evenodd" d="M47.4995 29.89L45.8595 25.83H37.0995H31.3095L29.5195 29.89V43.81H47.4995V29.89V29.89Z" stroke="#003087" stroke-width="2" stroke-linecap="round" stroke-linejoin="round"/>
<path d="M11.1602 30.22C15.2652 35.7175 22.3688 38.0628 28.9402 36.09C29.1378 36.0286 29.3315 35.9551 29.5202 35.87" stroke="#003087" stroke-width="2" stroke-linecap="round" stroke-linejoin="round"/>
<rect x="0.5" width="48" height="48" fill="white" fill-opacity="0.01"/>
</svg>
