<svg width="48" height="48" viewBox="0 0 48 48" fill="none" xmlns="http://www.w3.org/2000/svg">
<path d="M2 24H46" stroke="#003087" stroke-width="2" stroke-linecap="round" stroke-linejoin="round"/>
<path d="M13 43.05L35 4.95001" stroke="#003087" stroke-width="2" stroke-linecap="round" stroke-linejoin="round"/>
<path d="M35 43.05L13 4.95001" stroke="#003087" stroke-width="2" stroke-linecap="round" stroke-linejoin="round"/>
<path d="M31.1403 24L34.3003 28.32C34.4766 28.561 34.579 28.8482 34.595 29.1464C34.611 29.4446 34.54 29.741 34.3906 29.9996C34.2412 30.2582 34.0198 30.4677 33.7534 30.6027C33.487 30.7377 33.1871 30.7924 32.8903 30.76L27.5703 30.19L25.4103 35.08C25.29 35.3538 25.0927 35.5867 24.8423 35.7502C24.5919 35.9137 24.2993 36.0007 24.0003 36.0007C23.7012 36.0007 23.4087 35.9137 23.1583 35.7502C22.9079 35.5867 22.7105 35.3538 22.5903 35.08L20.4303 30.19L15.1103 30.76C14.8134 30.7924 14.5135 30.7377 14.2471 30.6027C13.9807 30.4677 13.7594 30.2582 13.6099 29.9996C13.4605 29.741 13.3895 29.4446 13.4055 29.1464C13.4216 28.8482 13.524 28.561 13.7003 28.32L16.8603 24L13.7003 19.68C13.524 19.4389 13.4216 19.1518 13.4055 18.8536C13.3895 18.5554 13.4605 18.259 13.6099 18.0004C13.7594 17.7418 13.9807 17.5323 14.2471 17.3973C14.5135 17.2623 14.8134 17.2076 15.1103 17.24L20.4303 17.81L22.5903 12.92C22.7105 12.6462 22.9079 12.4133 23.1583 12.2498C23.4087 12.0863 23.7012 11.9993 24.0003 11.9993C24.2993 11.9993 24.5919 12.0863 24.8423 12.2498C25.0927 12.4133 25.29 12.6462 25.4103 12.92L27.5703 17.81L32.8903 17.24C33.1871 17.2076 33.487 17.2623 33.7534 17.3973C34.0198 17.5323 34.2412 17.7418 34.3906 18.0004C34.54 18.259 34.611 18.5554 34.595 18.8536C34.579 19.1518 34.4766 19.4389 34.3003 19.68L31.1403 24Z" stroke="#003087" stroke-width="2" stroke-linecap="round" stroke-linejoin="round"/>
<path d="M43 19.22L39.5 24L43 28.78" stroke="#003087" stroke-width="2" stroke-linecap="round" stroke-linejoin="round"/>
<path d="M29.3604 5.15997L31.7504 10.58L37.6404 9.93997" stroke="#003087" stroke-width="2" stroke-linecap="round" stroke-linejoin="round"/>
<path d="M10.3604 9.93997L16.2504 10.58L18.6404 5.15997" stroke="#003087" stroke-width="2" stroke-linecap="round" stroke-linejoin="round"/>
<path d="M5 28.78L8.5 24L5 19.22" stroke="#003087" stroke-width="2" stroke-linecap="round" stroke-linejoin="round"/>
<path d="M18.6404 42.84L16.2504 37.42L10.3604 38.06" stroke="#003087" stroke-width="2" stroke-linecap="round" stroke-linejoin="round"/>
<path d="M37.6404 38.06L31.7504 37.42L29.3604 42.84" stroke="#003087" stroke-width="2" stroke-linecap="round" stroke-linejoin="round"/>
</svg>
