<svg width="48" height="48" viewBox="0 0 48 48" fill="none" xmlns="http://www.w3.org/2000/svg">
<rect width="48" height="48" fill="white" fill-opacity="0.01"/>
<path d="M34.36 24C34.3636 24.9221 34.2425 25.8404 34 26.73H42.8C42.9327 25.8261 42.9996 24.9137 43 24C42.993 23.0859 42.9194 22.1735 42.78 21.27H34C34.2425 22.1596 34.3636 23.078 34.36 24V24Z" fill="#A7C1E8"/>
<path d="M13.64 24C13.6364 23.078 13.7575 22.1596 14 21.27H5.22C5.08057 22.1735 5.00704 23.0859 5 24C5.00704 24.9142 5.08057 25.8266 5.22 26.73H14C13.7575 25.8404 13.6364 24.9221 13.64 24V24Z" fill="#A7C1E8"/>
<path d="M26.7295 42.78V33.89C24.9429 34.3832 23.0561 34.3832 21.2695 33.89V42.78C22.173 42.9194 23.0854 42.993 23.9995 43C24.9137 42.993 25.8261 42.9194 26.7295 42.78V42.78Z" fill="#A7C1E8"/>
<path d="M26.7295 14.11V5.22C25.8261 5.08057 24.9137 5.00704 23.9995 5C23.0854 5.00704 22.173 5.08057 21.2695 5.22V14.11C23.0561 13.6168 24.9429 13.6168 26.7295 14.11V14.11Z" fill="#A7C1E8"/>
<path fill-rule="evenodd" clip-rule="evenodd" d="M23.9996 34.26C29.6527 34.2049 34.1961 29.5872 34.1594 23.934C34.1228 18.2807 29.52 13.7223 23.8666 13.7405C18.2133 13.7587 13.6399 18.3466 13.6396 24C13.6529 26.7344 14.7518 29.3515 16.6947 31.2757C18.6376 33.1998 21.2653 34.2733 23.9996 34.26Z" stroke="#003087" stroke-width="2" stroke-linecap="round" stroke-linejoin="round"/>
<path d="M16.12 6.73003C12.58 6.47003 8.84001 6.63003 7.37001 8.17003C5.90001 9.71003 5.90001 13.51 6.37001 17.09" stroke="#003087" stroke-width="2" stroke-linecap="round" stroke-linejoin="round"/>
<circle cx="24" cy="24" r="19" stroke="#003087" stroke-width="2" stroke-linecap="round" stroke-linejoin="round"/>
<path d="M41.5299 16.67C41.8299 12.99 41.7099 9.00001 40.1099 7.47001C38.5099 5.94001 34.7199 6.00001 31.1699 6.41001" stroke="#003087" stroke-width="2" stroke-linecap="round" stroke-linejoin="round"/>
<path d="M6.84048 32.11C6.60048 35.82 6.71048 39.79 8.08048 41.11C9.45048 42.43 13.8105 42.35 17.6405 41.9" stroke="#003087" stroke-width="2" stroke-linecap="round" stroke-linejoin="round"/>
<path d="M31 41.65C34.87 41.99 39.31 41.98 40.82 40.4C42.33 38.82 42.17 34.65 41.71 30.88" stroke="#003087" stroke-width="2" stroke-linecap="round" stroke-linejoin="round"/>
<path d="M21.2695 14.1V5.19" stroke="#003087" stroke-width="2" stroke-linecap="round" stroke-linejoin="round"/>
<path d="M26.7305 14.1V5.19" stroke="#003087" stroke-width="2" stroke-linecap="round" stroke-linejoin="round"/>
<path d="M21.2695 42.81V33.9" stroke="#003087" stroke-width="2" stroke-linecap="round" stroke-linejoin="round"/>
<path d="M26.7305 42.81V33.9" stroke="#003087" stroke-width="2" stroke-linecap="round" stroke-linejoin="round"/>
<path d="M14.0104 26.73H5.19043" stroke="#003087" stroke-width="2" stroke-linecap="round" stroke-linejoin="round"/>
<path d="M14.0097 21.27H5.17969" stroke="#003087" stroke-width="2" stroke-linecap="round" stroke-linejoin="round"/>
<path d="M42.8102 26.73H33.9902" stroke="#003087" stroke-width="2" stroke-linecap="round" stroke-linejoin="round"/>
<path d="M42.8102 21.27H33.9902" stroke="#003087" stroke-width="2" stroke-linecap="round" stroke-linejoin="round"/>
</svg>
